<?xml version="1.0" encoding="utf-8"?>
<!-- Generator: Adobe Illustrator 15.1.0, SVG Export Plug-In . SVG Version: 6.00 Build 0)  -->
<!DOCTYPE svg PUBLIC "-//W3C//DTD SVG 1.1//EN" "http://www.w3.org/Graphics/SVG/1.1/DTD/svg11.dtd">
<svg version="1.1" id="Layer_2" xmlns="http://www.w3.org/2000/svg" xmlns:xlink="http://www.w3.org/1999/xlink" x="0px" y="0px"
	 width="731.742px" height="203.43px" viewBox="0 0 731.742 203.43" enable-background="new 0 0 731.742 203.43"
	 xml:space="preserve">
<g>
	<path d="M0,180.871c8.881,0,25.199-1.439,25.199-23.758V52.477l-14.398-0.48V26.559h40.318v134.633
		c0,29.52-9.6,41.76-42.479,42.238L0,180.871z"/>
	<path d="M146.875,194.551l-1.68-1.439c-3.84,1.439-9.359,4.08-17.998,4.08c-29.039,0-45.119-13.92-45.119-43.918V74.316h26.398
		v75.117c0,13.438,3.361,21.598,18.721,21.598c15.838,0,17.998-10.559,17.998-22.559V74.316h26.398v120.234H146.875z"/>
	<path d="M262.553,194.551v-75.598c0-17.998-15.6-27.357-35.998-17.039v92.637h-26.16V74.316h23.279l3.121,1.439
		c9.359-3.119,26.398-6.24,41.758,0.959c12,5.52,20.398,16.561,20.398,34.799v83.037H262.553z"/>
	<path d="M389.752,193.111c-17.039,4.559-35.758,5.52-50.396,0.959c-18.961-6.238-26.879-18.479-26.879-42.719v-30.719
		c0-46.797,39.598-58.076,76.797-40.797l-7.201,22.799c-28.559-11.279-43.197,0.24-43.197,16.559v34.799
		c0,23.039,35.277,16.799,43.678,13.199L389.752,193.111z"/>
	<path d="M446.631,197.67c-28.559-0.479-36.479-16.078-36.479-34.799V50.559h26.879v23.758h22.799l-5.76,24.719h-17.039v63.836
		c0,11.76,7.92,13.68,17.52,13.68L446.631,197.67z"/>
	<path d="M478.309,194.551V74.316h26.402v120.234H478.309z"/>
	<path d="M618.703,150.393c0,24.479-12.719,46.559-44.398,46.559c-31.438,0-45.117-22.08-45.117-46.559v-31.678
		c0-30.24,16.078-47.039,45.117-47.039c27.844,0,44.398,18,44.398,47.039V150.393z M592.547,118.715
		c0-19.439-11.281-20.4-18.242-20.4c-8.156,0-18.719,2.881-18.719,20.4v34.078c0,13.918,8.883,18.238,18.719,18.238
		c9.844,0,18.242-5.279,18.242-18.238V118.715z"/>
	<path d="M705.344,194.551v-75.598c0-17.998-15.602-27.357-36-17.039v92.637h-26.16V74.316h23.281l3.117,1.439
		c9.359-3.119,26.402-6.24,41.762,0.959c11.996,5.52,20.398,16.561,20.398,34.799v83.037H705.344z"/>
</g>
<rect x="478.309" fill="#FAAF40" width="26.402" height="60.5"/>
<rect x="461.26" y="17.049" fill="#FAAF40" width="60.498" height="26.402"/>
</svg>
